<?xml version="1.0" encoding="UTF-8" standalone="no"?>
<!-- Uploaded to: SVG Repo, www.svgrepo.com, Generator: SVG Repo Mixer Tools -->

<svg
   fill="#000000"
   version="1.1"
   id="Capa_1"
   width="800.0061"
   height="581.29303"
   viewBox="0 0 122.98194 89.359998"
   xml:space="preserve"
   sodipodi:docname="ed4c7aec47692d11b1a13f367595eec4.svg"
   xmlns:inkscape="http://www.inkscape.org/namespaces/inkscape"
   xmlns:sodipodi="http://sodipodi.sourceforge.net/DTD/sodipodi-0.dtd"
   xmlns="http://www.w3.org/2000/svg"
   xmlns:svg="http://www.w3.org/2000/svg"><defs
   id="defs29" /><sodipodi:namedview
   id="namedview27"
   pagecolor="#ffffff"
   bordercolor="#666666"
   borderopacity="1.0"
   inkscape:pageshadow="2"
   inkscape:pageopacity="0.0"
   inkscape:pagecheckerboard="0" />
<g
   id="g24"
   transform="translate(-1.7928115e-4,-16.811)">
	<path
   d="m 97.196,36.995 c 2.849,1.308 5.869,2.734 5.917,2.757 0.457,0.216 0.939,0.318 1.413,0.318 1.24,0 2.429,-0.701 2.994,-1.897 0.782,-1.653 0.076,-3.626 -1.578,-4.408 -0.124,-0.057 -1.321,-0.624 -2.893,-1.357 -1.29,2.187 -3.37,3.851 -5.853,4.587 z"
   id="path2" />
	<g
   id="g22">
		<path
   d="m 50.824,36.72 -1.436,1.311 -1.893,-1.783 c -0.392,-0.065 -0.777,-0.149 -1.153,-0.258 -0.782,0.354 -1.714,0.839 -2.677,1.407 0.07,-0.414 0.067,-0.834 -0.015,-1.241 0.428,-0.25 0.849,-0.479 1.263,-0.697 -2.209,-1.01 -3.998,-2.77 -5.05,-4.955 -0.582,0.354 -1.153,0.716 -1.698,1.084 -0.797,-0.457 -1.564,-0.892 -2.169,-1.233 -1.018,2.205 -2.784,3.989 -4.975,5.033 1.793,0.932 6.154,3.349 7.365,4.203 0.265,0.187 0.551,0.314 0.844,0.416 v 17.664 c 0,1.518 0.244,2.963 0.699,4.28 -0.013,0.141 -0.021,0.283 -0.021,0.426 v 3.967 h 0.026 c -0.002,0.057 -0.017,0.111 -0.017,0.169 l 10e-4,34.886 c 0,2.377 1.928,4.305 4.306,4.305 2.378,0 4.305,-1.928 4.305,-4.305 L 48.528,66.513 c 0,-0.058 -0.015,-0.112 -0.017,-0.169 h 0.647 c -0.002,0.057 -0.017,0.111 -0.017,0.168 l -0.002,34.887 c 0,2.377 1.927,4.305 4.305,4.305 v 0 c 2.377,0 4.306,-1.928 4.306,-4.305 l 0.002,-34.887 c 0,-0.059 -0.015,-0.111 -0.017,-0.169 h 0.05 l 0.003,-4.509 c 0,0 0.762,-1.02 0.762,-4.718 0,-1.987 0.202,-9.395 0.202,-9.395 l 0.021,-8.101 c -0.045,-0.021 -6.162,-3.374 -6.162,-3.374 z"
   id="path4" />
		<path
   d="m 28.547,36.51 -1.893,1.451 -1.436,-1.312 c -3.134,1.429 -6.904,3.21 -6.955,3.234 -0.548,0.259 -1.132,0.391 -1.735,0.391 -0.668,0 -1.311,-0.176 -1.884,-0.477 L 14.631,39.81 C 11.005,36.901 7.981,31.864 6.921,29.696 6.042,27.886 3.862,27.132 2.052,28.01 c -1.809,0.879 -2.564,3.06 -1.685,4.869 0.643,1.323 6.533,13.002 15.42,15.784 0.513,0.16 1.026,0.279 1.541,0.374 0.058,2.24 0.165,6.561 0.165,8.01 0,3.699 0.761,4.719 0.761,4.719 l 0.003,4.508 h 0.066 c -0.002,0.059 -0.018,0.114 -0.018,0.174 l 0.002,34.885 c 0,2.377 1.927,4.306 4.306,4.306 2.377,0 4.305,-1.929 4.305,-4.306 L 26.917,66.446 c 0,-0.059 -0.015,-0.113 -0.018,-0.172 h 0.648 c -0.002,0.059 -0.018,0.114 -0.018,0.172 l -0.002,34.887 c 0,2.377 1.927,4.306 4.305,4.306 2.378,0 4.305,-1.927 4.306,-4.306 L 36.14,66.448 c 0,-0.06 -0.015,-0.115 -0.018,-0.174 h 0.011 v -3.967 c 0,-0.145 -0.009,-0.285 -0.021,-0.426 0.455,-1.318 0.698,-2.763 0.698,-4.281 V 39.606 c -1.548,0.124 -6.21,-3.26 -6.782,-3.52 -0.374,0.109 -1.089,0.358 -1.481,0.424 z"
   id="path6" />
		<path
   d="m 16.411,39.115 c 0.485,0 0.978,-0.104 1.445,-0.326 0.048,-0.023 3.069,-1.45 5.953,-2.775 -2.577,-0.715 -4.748,-2.398 -6.104,-4.636 -1.498,0.7 -2.624,1.23 -2.743,1.288 -1.691,0.798 -2.414,2.818 -1.616,4.508 0.58,1.225 1.797,1.941 3.065,1.941 z"
   id="path8" />
		<circle
   cx="49.390999"
   cy="26.195"
   r="9.3839998"
   id="circle10" />
		<circle
   cx="26.76"
   cy="26.195"
   r="9.3839998"
   id="circle12" />
		<path
   d="m 73.842,37.051 -1.437,1.311 -1.892,-1.783 c -0.393,-0.065 -0.777,-0.149 -1.154,-0.258 -0.781,0.355 -1.713,0.839 -2.677,1.407 0.07,-0.414 0.066,-0.833 -0.016,-1.241 0.429,-0.249 0.85,-0.479 1.263,-0.697 -2.209,-1.01 -3.998,-2.77 -5.05,-4.955 -0.582,0.354 -1.153,0.716 -1.698,1.085 -0.797,-0.457 -1.565,-0.892 -2.169,-1.234 -1.018,2.205 -2.784,3.989 -4.975,5.033 1.793,0.932 6.154,3.349 7.365,4.203 0.265,0.187 0.551,0.314 0.844,0.417 v 17.663 c 0,1.518 0.244,2.963 0.698,4.281 -0.013,0.14 -0.021,0.281 -0.021,0.426 v 3.967 h 0.027 c -0.002,0.057 -0.017,0.111 -0.017,0.17 l 10e-4,34.885 c 0,2.379 1.928,4.305 4.306,4.305 2.377,0 4.306,-1.926 4.306,-4.305 L 71.545,66.844 c 0,-0.059 -0.016,-0.111 -0.018,-0.169 h 0.647 c -0.002,0.058 -0.018,0.11 -0.018,0.168 l -0.002,34.886 c 0,2.379 1.927,4.305 4.306,4.307 2.377,0 4.306,-1.928 4.306,-4.305 l 0.002,-34.886 c 0,-0.058 -0.015,-0.112 -0.017,-0.17 h 0.05 l 0.003,-4.509 c 0,0 0.762,-1.02 0.762,-4.718 0,-1.987 0.202,-9.396 0.202,-9.396 l 0.021,-8.1 C 81.744,39.93 75.627,36.577 75.627,36.577 Z"
   id="path14" />
		<circle
   cx="72.407997"
   cy="26.525"
   r="9.3839998"
   id="circle16" />
		<circle
   cx="95.249001"
   cy="26.659"
   r="9.3839998"
   id="circle18" />
		<path
   d="m 120.933,27.74 c -1.809,-0.881 -3.987,-0.129 -4.871,1.677 -1.167,2.388 -4.708,8.244 -8.815,10.919 -0.57,0.299 -1.21,0.472 -1.875,0.472 -0.602,0 -1.187,-0.131 -1.733,-0.39 -0.051,-0.024 -3.82,-1.805 -6.955,-3.233 l -1.437,1.311 -1.892,-1.783 c -0.393,-0.065 -0.778,-0.149 -1.154,-0.258 -0.781,0.355 -1.713,0.838 -2.677,1.407 0.07,-0.414 0.067,-0.834 -0.015,-1.242 0.428,-0.249 0.849,-0.479 1.263,-0.696 -2.209,-1.01 -3.998,-2.77 -5.05,-4.956 -0.583,0.354 -1.153,0.716 -1.698,1.085 -0.797,-0.457 -1.565,-0.892 -2.169,-1.234 -1.018,2.206 -2.784,3.99 -4.975,5.034 1.793,0.933 6.153,3.349 7.364,4.203 0.266,0.186 0.552,0.314 0.845,0.417 v 17.664 c 0,1.517 0.243,2.962 0.698,4.279 -0.013,0.142 -0.021,0.283 -0.021,0.427 v 3.967 h 0.025 c -0.002,0.058 -0.017,0.111 -0.017,0.169 l 0.002,34.887 c 0,2.377 1.928,4.305 4.306,4.305 2.379,0 4.306,-1.928 4.306,-4.307 L 94.387,66.978 c 0,-0.058 -0.016,-0.112 -0.018,-0.168 h 0.647 c 0,0.058 -0.016,0.111 -0.016,0.168 l -0.002,34.886 c 0,2.379 1.928,4.306 4.306,4.307 v 0 c 2.377,0 4.306,-1.928 4.306,-4.305 l 0.002,-34.887 c 0,-0.058 -0.015,-0.111 -0.017,-0.169 h 0.05 l 0.003,-4.509 c 0,0 0.762,-1.02 0.762,-4.718 0,-1.607 0.132,-6.753 0.184,-8.667 0.434,-0.042 0.868,-0.109 1.302,-0.199 l 0.033,0.014 c 0.004,-0.008 0.01,-0.015 0.014,-0.023 0.419,-0.087 0.837,-0.188 1.255,-0.319 8.887,-2.782 14.778,-14.461 15.42,-15.784 0.874,-1.809 0.121,-3.985 -1.685,-4.865 z"
   id="path20" />
	</g>
</g>
</svg>
